<?xml version="1.0" standalone="no"?>
<!DOCTYPE svg PUBLIC "-//W3C//DTD SVG 20010904//EN"
 "http://www.w3.org/TR/2001/REC-SVG-20010904/DTD/svg10.dtd">
<svg version="1.0" xmlns="http://www.w3.org/2000/svg"
 width="342.000000pt" height="297.000000pt" viewBox="0 0 342.000000 297.000000"
 preserveAspectRatio="xMidYMid meet">

<g transform="translate(0.000000,297.000000) scale(0.100000,-0.100000)"
fill="#000000" stroke="none">
<path d="M1255 2903 c-65 -18 -123 -26 -209 -28 -79 -3 -125 -9 -140 -18 -12
-8 -36 -18 -55 -22 -50 -11 -131 -49 -185 -86 -27 -19 -64 -43 -84 -54 -31
-17 -39 -30 -58 -93 -12 -40 -26 -78 -32 -85 -5 -6 -28 -47 -51 -90 l-42 -78
0 -132 c1 -73 -2 -207 -5 -298 l-7 -166 43 -79 c23 -43 48 -86 56 -95 8 -8 14
-21 14 -27 0 -13 69 -82 82 -82 5 0 31 -20 57 -45 33 -31 51 -57 55 -79 13
-70 133 -159 256 -191 36 -9 94 -25 130 -35 36 -10 94 -22 130 -25 40 -4 88
-18 125 -35 33 -16 79 -33 103 -38 24 -6 62 -27 90 -50 26 -22 68 -48 93 -58
24 -9 54 -27 65 -39 12 -12 37 -27 55 -34 71 -26 127 -54 214 -107 50 -31 99
-61 110 -67 10 -7 27 -21 36 -32 9 -11 36 -40 58 -65 23 -25 49 -58 58 -75 27
-51 83 -119 109 -133 29 -15 214 -197 214 -210 0 -5 7 -15 15 -22 8 -7 15 -24
15 -39 0 -61 25 -91 61 -76 19 8 75 85 83 115 4 14 11 34 15 45 5 11 16 49 25
85 10 36 21 81 27 100 28 106 17 425 -17 508 -17 42 -44 183 -44 231 0 20 -6
43 -12 49 -19 19 -40 124 -45 226 -4 88 -4 89 26 120 37 39 61 103 61 167 0
39 -6 58 -30 91 -16 22 -30 46 -30 52 0 6 -18 24 -40 40 -40 30 -40 30 -40 98
0 39 4 68 10 68 6 0 10 8 10 18 0 9 7 26 15 36 8 11 15 32 15 48 0 15 5 28 11
28 8 0 10 25 7 81 -5 90 -12 100 -90 143 -34 19 -62 26 -100 26 -64 0 -70 4
-95 55 -42 85 -77 141 -107 173 -56 61 -279 222 -308 222 -7 0 -33 10 -58 21
-95 45 -243 68 -425 67 -128 0 -163 -4 -240 -25z m514 -44 c36 -6 84 -17 106
-24 86 -29 151 -54 185 -71 41 -21 200 -152 200 -165 0 -5 11 -26 24 -47 13
-20 30 -54 37 -76 23 -64 131 -146 192 -146 35 0 68 -28 58 -48 -43 -84 -64
-185 -49 -241 6 -20 12 -56 14 -81 8 -76 12 -86 54 -115 22 -15 43 -38 46 -51
3 -13 12 -28 20 -35 9 -7 14 -32 14 -72 0 -50 -5 -68 -31 -108 -16 -26 -37
-53 -45 -59 -19 -17 -20 -172 0 -203 7 -12 17 -42 20 -67 4 -24 11 -49 15 -55
5 -5 11 -32 14 -60 5 -48 24 -135 47 -220 6 -22 12 -56 15 -75 2 -19 9 -64 15
-100 13 -73 7 -284 -8 -303 -5 -7 -13 -32 -17 -57 -4 -25 -14 -52 -22 -61 -13
-16 -16 -15 -36 5 -12 11 -39 35 -59 53 -24 21 -40 44 -43 65 -3 18 -10 35
-16 36 -5 2 -6 8 -3 13 3 6 1 15 -4 22 -5 7 -9 48 -8 92 1 44 -3 89 -8 100 -9
19 -10 19 -17 -5 -20 -69 -1 -214 34 -257 6 -9 6 -13 -2 -13 -6 0 -13 11 -17
25 -3 14 -11 25 -17 25 -6 0 -7 3 -4 6 3 4 0 16 -8 28 -8 11 -15 27 -15 35 0
22 -40 102 -63 129 -11 12 -29 22 -38 22 -16 0 -14 -6 11 -44 17 -24 30 -50
30 -57 0 -8 12 -41 25 -74 l25 -60 -28 35 c-15 19 -48 56 -74 82 -26 26 -55
59 -64 73 -9 14 -26 31 -38 37 -19 10 -20 10 -6 -7 8 -10 24 -36 35 -59 15
-30 25 -40 40 -39 11 1 14 0 8 -3 -20 -9 -16 -22 17 -58 39 -42 92 -126 81
-126 -5 0 -17 12 -26 27 -10 16 -26 36 -37 46 -10 10 -16 22 -13 27 3 4 -1 10
-9 13 -8 3 -39 39 -69 79 -30 40 -69 88 -85 106 -17 17 -28 32 -24 32 3 0 1 5
-6 12 -7 7 -12 16 -12 20 0 17 23 7 51 -23 31 -34 49 -34 28 -1 -17 27 -62 52
-93 52 -19 0 -29 7 -36 25 -5 14 -18 29 -27 32 -10 4 -37 20 -59 35 -23 15
-47 28 -54 28 -21 0 -120 72 -120 87 0 18 -32 47 -82 73 -21 11 -38 24 -38 29
0 11 -128 65 -205 87 -125 35 -182 45 -253 46 -39 0 -74 3 -77 8 -11 18 169
27 215 10 14 -4 59 -19 100 -31 156 -46 269 -114 371 -221 53 -56 79 -71 79
-47 0 7 -37 48 -82 93 -112 109 -241 183 -418 237 -91 27 -159 61 -186 90 -24
27 -72 52 -84 44 -6 -3 1 -16 15 -28 52 -47 31 -74 -62 -76 -53 -1 -84 11
-136 53 -23 18 -48 36 -54 40 -23 13 -13 -13 18 -49 17 -19 26 -35 21 -35 -6
0 -14 5 -17 10 -9 15 -68 13 -63 -2 9 -28 69 -56 131 -62 110 -12 137 -18 137
-30 0 -8 33 -16 98 -24 97 -11 269 -51 327 -76 16 -7 42 -18 57 -24 35 -14 68
-43 68 -59 0 -7 8 -13 17 -13 13 0 14 -3 6 -11 -9 -9 -21 -7 -50 8 -21 11 -65
28 -98 37 -58 18 -155 46 -204 61 -17 5 -21 4 -16 -5 4 -7 -7 -5 -25 5 -43 22
-129 44 -132 34 -2 -5 -15 -2 -30 5 -26 14 -43 18 -120 31 -57 9 -46 22 12 15
28 -4 53 -3 56 2 3 4 -5 8 -18 8 -55 0 -161 30 -194 55 -19 14 -34 30 -34 35
0 15 -52 70 -61 64 -11 -7 0 -28 39 -72 39 -45 81 -72 114 -72 15 0 30 -4 33
-10 11 -17 -28 -11 -80 14 -52 24 -128 99 -138 136 -4 16 1 24 18 32 15 7 21
16 18 29 -3 10 0 19 6 19 13 0 15 126 2 134 -20 13 -51 99 -51 141 0 32 -5 47
-16 52 -11 4 -15 17 -13 49 2 24 0 46 -4 50 -4 4 -7 -9 -7 -29 0 -26 -4 -37
-15 -37 -23 0 -19 -95 5 -149 26 -56 26 -56 -13 -27 -43 33 -61 34 -52 4 4
-13 9 -30 11 -40 3 -9 20 -28 39 -42 56 -43 50 -107 -7 -78 -21 10 -27 19 -23
32 4 13 -3 23 -24 36 -21 13 -27 20 -18 26 8 5 7 8 -4 8 -9 0 -19 9 -22 20 -3
11 -10 20 -16 20 -21 0 -11 -19 35 -64 46 -46 47 -62 2 -27 -35 28 -135 201
-136 237 l-1 30 37 -34 c36 -33 92 -68 92 -57 0 3 -18 35 -40 71 -22 36 -40
76 -40 88 0 13 -9 31 -19 41 -18 15 -20 28 -16 115 2 54 8 107 13 117 5 10 19
55 31 101 12 46 37 115 56 153 19 38 37 77 38 86 7 37 36 93 49 93 9 0 9 3 -2
10 -13 9 -13 10 0 10 8 0 26 10 40 23 14 12 40 29 57 36 18 7 47 30 65 50 18
20 46 42 61 49 15 7 25 16 22 22 -9 14 27 19 153 22 104 3 112 2 112 -16 0
-18 1 -18 19 -2 10 9 54 33 97 51 79 35 80 35 233 35 85 0 184 -5 220 -11z
m-1019 -79 c-8 -5 -19 -10 -25 -10 -5 0 -3 5 5 10 8 5 20 10 25 10 6 0 3 -5
-5 -10z m650 -1670 c8 -5 11 -10 5 -10 -5 0 -17 5 -25 10 -8 5 -10 10 -5 10 6
0 17 -5 25 -10z m55 -20 c3 -5 2 -10 -4 -10 -5 0 -13 5 -16 10 -3 6 -2 10 4
10 5 0 13 -4 16 -10z m148 -48 c59 -24 107 -37 124 -35 16 3 36 -2 48 -12 14
-12 15 -15 4 -12 -9 3 -22 1 -30 -3 -10 -7 -6 -12 15 -20 16 -6 26 -13 24 -16
-11 -10 -58 20 -58 38 0 10 -4 18 -10 18 -5 0 -7 -7 -4 -15 5 -12 -4 -11 -47
6 -97 37 -149 62 -161 76 -15 18 -11 17 95 -25z m303 -138 c21 -9 57 -29 81
-45 23 -16 46 -29 52 -29 6 0 15 -10 22 -22 6 -13 25 -38 42 -55 17 -18 26
-33 20 -33 -6 0 -34 25 -62 55 -30 34 -82 74 -128 100 -83 47 -90 55 -27 29z
m479 -384 c3 -5 2 -10 -4 -10 -5 0 -13 5 -16 10 -3 6 -2 10 4 10 5 0 13 -4 16
-10z m73 -83 c5 -23 -20 -22 -35 1 -9 16 -8 18 11 17 11 -1 22 -9 24 -18z m87
-77 c28 -23 78 -109 55 -95 -12 7 -13 -15 -2 -33 5 -7 16 -10 28 -6 18 6 18 6
2 -11 -16 -17 -18 -17 -42 11 -14 16 -26 33 -26 38 0 5 -30 37 -66 71 l-66 62
34 -4 c27 -2 29 -1 13 6 -11 5 -14 10 -7 10 8 1 10 6 6 14 -4 6 4 1 17 -13 13
-14 38 -36 54 -50z"/>
<path d="M1310 2531 c0 -5 13 -19 29 -30 26 -19 44 -21 162 -21 73 0 146 -4
163 -9 17 -5 60 -14 96 -19 88 -13 203 -69 265 -129 46 -44 87 -114 125 -212
16 -41 105 -113 134 -109 20 3 21 10 24 112 3 109 3 110 -25 132 -15 13 -31
23 -35 24 -4 0 -9 -46 -10 -102 l-3 -103 -47 94 c-56 112 -109 170 -229 252
-99 66 -176 97 -267 106 -34 3 -65 10 -68 14 -7 12 -314 11 -314 0z"/>
<path d="M2232 2418 c-1 -37 -6 -70 -12 -73 -13 -8 -13 -65 -1 -65 14 0 23 74
19 145 l-4 60 -2 -67z"/>
<path d="M710 2436 c0 -21 48 -52 95 -60 22 -4 48 -15 58 -23 19 -17 23 -43 7
-43 -5 0 -10 -15 -10 -34 0 -30 -5 -37 -43 -55 -24 -12 -48 -21 -54 -21 -6 0
-22 -9 -37 -21 -19 -15 -26 -31 -28 -57 l-1 -37 -4 34 c-6 42 28 79 102 115
46 22 53 28 58 62 4 25 2 41 -6 46 -8 5 -13 -1 -15 -20 -5 -36 -15 -47 -66
-72 -69 -33 -83 -55 -90 -140 -4 -52 -2 -67 4 -50 9 24 9 23 7 -6 -2 -21 1
-30 8 -28 6 3 20 -4 30 -16 28 -31 35 -25 35 30 0 44 3 52 25 62 13 6 22 14
20 18 -6 10 24 22 35 15 11 -7 61 16 55 25 -3 5 2 11 11 14 8 3 12 2 9 -4 -3
-6 -2 -10 3 -10 20 0 33 30 34 83 1 45 -4 63 -25 96 -29 44 -93 85 -147 96
-19 3 -43 9 -52 11 -12 4 -18 0 -18 -10z m170 -280 c0 -2 -7 -7 -16 -10 -8 -3
-12 -2 -9 4 6 10 25 14 25 6z"/>
<path d="M1680 2362 c0 -15 122 -113 172 -138 26 -13 58 -40 70 -58 28 -42 58
-63 58 -41 0 45 -44 91 -130 135 -25 13 -69 43 -98 66 -53 43 -72 53 -72 36z"/>
<path d="M1900 2320 c20 -13 53 -13 45 0 -3 6 -18 10 -33 10 -21 0 -24 -2 -12
-10z"/>
<path d="M1354 2302 c-75 -16 -84 -21 -130 -67 -56 -55 -89 -124 -100 -203 -4
-29 -11 -55 -15 -58 -8 -5 -6 -34 6 -114 4 -23 3 -22 -10 5 -14 29 -14 29 -14
5 0 -26 24 -67 31 -53 3 4 3 2 1 -6 -5 -20 26 -121 37 -121 6 0 10 -6 10 -13
0 -20 102 -122 142 -143 25 -14 61 -18 153 -20 119 -2 119 -2 30 5 -99 8 -181
33 -206 62 -9 11 -21 19 -27 19 -6 0 -17 10 -23 23 -6 12 -22 33 -34 47 -13
14 -30 42 -39 64 -15 36 -15 38 1 25 10 -8 24 -23 32 -34 30 -41 131 -133 176
-159 45 -27 51 -28 165 -24 91 2 122 7 136 19 11 9 66 31 124 49 58 18 113 40
122 48 15 13 20 12 44 -7 36 -29 63 -26 112 9 l42 30 0 101 c0 100 0 101 -31
130 -17 16 -35 29 -40 29 -5 0 -9 -49 -9 -109 0 -105 -1 -109 -25 -125 -13 -9
-26 -16 -27 -16 -2 0 -4 64 -6 143 -2 78 -8 158 -13 178 -19 75 -228 243 -358
287 -47 16 -160 13 -257 -6z m273 -78 c-3 -3 -12 -4 -19 -1 -8 3 -5 6 6 6 11
1 17 -2 13 -5z"/>
<path d="M2429 2254 c-20 -24 -38 -101 -39 -161 0 -58 7 -68 35 -47 14 11 21
32 26 82 4 37 11 84 15 105 5 29 4 37 -8 37 -9 0 -22 -7 -29 -16z"/>
<path d="M2045 2230 c10 -11 20 -20 22 -20 2 0 -1 9 -7 20 -6 11 -16 20 -22
20 -6 0 -3 -9 7 -20z"/>
<path d="M2079 2182 c6 -12 16 -24 22 -28 8 -4 8 -1 0 14 -6 12 -16 24 -22 28
-8 4 -8 1 0 -14z"/>
<path d="M2040 2100 c0 -5 19 -20 43 -34 67 -40 170 -156 138 -156 -5 0 -14
14 -21 30 -8 19 -38 47 -84 77 -39 26 -79 56 -89 66 -10 10 -22 15 -27 12 -14
-9 40 -64 84 -87 22 -11 46 -27 54 -34 7 -8 21 -18 31 -23 10 -6 23 -28 31
-50 9 -30 16 -38 25 -31 8 7 18 4 30 -10 38 -42 59 -8 35 56 -11 29 -128 149
-172 177 -29 18 -78 23 -78 7z"/>
<path d="M1081 2003 c-12 -44 -14 -65 -5 -87 13 -33 20 -13 20 54 -1 38 -2 70
-3 70 -1 0 -7 -17 -12 -37z"/>
<path d="M2390 2010 c-9 -5 -4 -13 14 -26 15 -11 45 -36 68 -56 47 -41 70 -41
36 0 -36 43 -104 91 -118 82z"/>
<path d="M2413 1750 c-19 -8 -23 -17 -23 -49 0 -34 6 -44 42 -76 34 -29 50
-35 77 -33 30 3 36 8 43 35 10 40 -9 82 -51 112 -31 22 -53 25 -88 11z"/>
<path d="M2357 1723 c-11 -10 -8 -53 3 -53 6 0 10 14 10 30 0 31 -2 35 -13 23z"/>
<path d="M2368 1649 c-6 -16 13 -49 29 -49 5 0 18 -9 28 -20 10 -11 26 -20 36
-20 9 0 19 -5 21 -11 2 -7 9 -5 17 5 11 14 11 16 -4 16 -9 0 -30 11 -47 25
-16 14 -35 25 -42 25 -7 0 -17 10 -23 22 -7 17 -11 18 -15 7z"/>
<path d="M1194 1583 c-18 -6 6 -64 44 -107 36 -41 159 -100 252 -121 30 -7 64
-16 74 -21 16 -6 18 -4 13 9 -5 14 -1 13 22 -4 48 -35 57 -17 13 26 l-39 40
44 34 c51 40 84 91 59 91 -9 0 -30 -13 -49 -29 -32 -29 -38 -30 -143 -33
l-109 -3 -65 47 c-36 25 -72 48 -80 50 -8 2 -17 8 -20 14 -3 6 -10 9 -16 7z
m170 -144 c23 -11 36 -29 21 -29 -29 0 -165 103 -165 125 0 3 26 -14 59 -39
32 -25 70 -51 85 -57z m138 -50 c52 -13 61 -32 11 -23 -43 7 -103 30 -103 39
0 5 19 2 92 -16z"/>
<path d="M1788 1536 c-13 -9 -18 -27 -18 -63 0 -44 4 -53 40 -88 38 -37 41
-39 114 -39 41 -1 70 2 65 5 -6 3 6 17 25 30 22 14 36 32 36 44 0 12 -22 44
-48 73 l-48 52 -75 0 c-46 -1 -81 -6 -91 -14z m152 -61 c0 -8 -4 -15 -9 -15
-5 0 -14 7 -21 15 -10 13 -9 15 9 15 12 0 21 -6 21 -15z"/>
<path d="M1734 1534 c-7 -3 -10 -13 -8 -22 1 -9 6 -38 9 -65 7 -51 44 -97 78
-97 14 0 10 7 -15 29 -35 30 -64 106 -55 141 3 11 4 20 4 19 -1 0 -7 -3 -13
-5z"/>
<path d="M705 1500 c3 -5 8 -10 11 -10 2 0 4 5 4 10 0 6 -5 10 -11 10 -5 0 -7
-4 -4 -10z"/>
<path d="M1807 1303 c-14 -13 -6 -78 14 -119 21 -45 57 -72 123 -95 26 -9 70
-44 128 -101 48 -48 99 -90 113 -94 24 -6 25 -4 25 34 0 23 -4 44 -10 47 -5 3
-10 13 -10 22 0 9 -7 24 -15 33 -15 17 -45 115 -45 149 0 27 -37 70 -89 102
-41 26 -53 29 -136 29 -51 0 -95 -3 -98 -7z m243 -68 c16 -19 0 -19 -26 0 -16
12 -16 14 -3 15 9 0 22 -7 29 -15z"/>
<path d="M1750 1259 c0 -31 7 -51 23 -69 12 -14 19 -21 15 -16 -5 6 -8 31 -8
57 0 29 -6 51 -15 59 -13 11 -15 6 -15 -31z"/>
<path d="M1190 1206 c0 -2 7 -7 16 -10 8 -3 12 -2 9 4 -6 10 -25 14 -25 6z"/>
<path d="M1245 1192 c6 -5 44 -18 85 -27 41 -10 90 -25 109 -32 18 -8 45 -16
60 -18 14 -3 44 -9 66 -14 54 -13 55 -7 3 14 -108 44 -347 101 -323 77z"/>
<path d="M2160 1121 c0 -11 5 -23 10 -26 6 -3 10 -15 10 -27 0 -11 8 -32 19
-46 10 -15 24 -52 32 -82 15 -60 48 -116 64 -109 20 9 -4 116 -39 169 -12 19
-26 50 -29 69 -12 57 -67 100 -67 52z"/>
<path d="M2530 1060 c0 -5 9 -24 20 -42 11 -19 20 -51 20 -74 0 -26 11 -65 29
-100 26 -56 28 -67 29 -194 1 -92 -2 -128 -8 -112 -5 12 -11 22 -12 22 -2 0
-1 -32 0 -71 3 -62 2 -71 -12 -66 -16 6 -23 -8 -8 -17 18 -11 36 15 43 61 l6
48 2 -42 c0 -23 6 -45 12 -49 6 -3 9 -14 6 -24 -3 -11 1 -21 9 -24 11 -4 12
10 7 74 -4 54 -2 80 5 80 6 0 13 -6 15 -12 3 -8 6 -6 6 5 1 9 -4 17 -10 17 -5
0 -7 5 -4 10 4 6 1 17 -5 25 -7 8 -11 40 -9 77 1 35 -1 70 -4 78 -3 8 -8 28
-12 44 -3 15 -15 41 -27 57 -14 18 -24 53 -29 93 -5 42 -17 79 -34 105 -25 41
-35 50 -35 31z"/>
<path d="M2315 953 c2 -27 9 -60 15 -74 8 -19 10 -12 7 39 -2 34 -8 67 -15 74
-8 8 -10 -1 -7 -39z"/>
<path d="M2500 835 c4 -25 10 -49 15 -53 11 -10 -1 78 -13 90 -5 5 -6 -9 -2
-37z"/>
<path d="M2565 675 c4 -22 11 -44 16 -50 12 -12 0 53 -13 75 -6 10 -7 1 -3
-25z"/>
<path d="M2690 490 c0 -5 5 -10 11 -10 5 0 7 5 4 10 -3 6 -8 10 -11 10 -2 0
-4 -4 -4 -10z"/>
<path d="M2639 346 c14 -14 26 -24 29 -22 7 8 -8 25 -31 37 -21 11 -21 10 2
-15z"/>
<path d="M2490 383 c0 -6 22 -36 50 -65 64 -69 64 -50 0 22 -28 30 -50 50 -50
43z"/>
</g>
</svg>
